<?xml version="1.0" encoding="UTF-8" standalone="no"?><!DOCTYPE svg PUBLIC "-//W3C//DTD SVG 1.1//EN" "http://www.w3.org/Graphics/SVG/1.1/DTD/svg11.dtd"><svg width="100%" height="100%" viewBox="0 0 524 598" version="1.1" xmlns="http://www.w3.org/2000/svg" xmlns:xlink="http://www.w3.org/1999/xlink" xml:space="preserve" xmlns:serif="http://www.serif.com/" style="fill-rule:evenodd;clip-rule:evenodd;stroke-linecap:round;stroke-linejoin:round;stroke-miterlimit:1.5;"><rect id="Artboard1" x="0" y="0" width="524" height="597.937" style="fill:none;"/><g><g><path d="M442.034,122.903c-27.393,-14.153 -61.124,-3.404 -75.277,23.99c-14.153,27.394 -3.403,61.125 23.991,75.278c27.393,14.153 61.124,3.403 75.277,-23.991c14.153,-27.394 3.403,-61.124 -23.991,-75.277Z" style="fill:#00ff25;stroke:#c8fffc;stroke-width:4.17px;"/><path d="M464.826,170.406c-0.095,-7.05 -10.996,-26.216 -12.816,-27.157c-1.821,-0.94 1.798,14.464 1.893,21.514c0.092,6.888 -3.148,19.842 -1.328,20.782c1.821,0.941 12.336,-8.796 12.251,-15.139Z" style="fill:#dcffd0;"/><path d="M386.816,190.654c1.46,-4.338 -2.081,-32.803 -5.208,-36c-3.127,-3.198 -12.094,12.474 -13.555,16.812c-1.147,3.407 2.327,6.697 4.79,9.215c3.127,3.198 12.512,14.311 13.973,9.973Z" style="fill:#dcffd0;"/></g><path d="M464.083,221.12l-0.55,6.6c-9.533,1.834 -17.508,3.942 -23.924,6.325c-6.417,2.383 -11.642,5.592 -15.675,9.625c-5.133,4.4 -9.35,10.175 -12.65,17.325c-3.3,7.15 -6.967,16.958 -11,29.424c-4.033,12.1 -8.616,27.133 -13.75,45.1c-5.133,17.966 -10.816,39.599 -17.049,64.899c-5.867,23.099 -12.284,49.407 -19.25,78.924c-6.967,29.516 -15.033,64.99 -24.2,106.423l-29.699,0c-1.467,-10.266 -4.125,-19.433 -7.975,-27.499c-3.85,-8.067 -9.075,-16.317 -15.675,-24.75c-9.9,-12.833 -21.725,-26.95 -35.475,-42.35c-13.749,-15.399 -26.124,-31.349 -37.124,-47.849c-10.633,-16.5 -19.25,-32.999 -25.85,-49.499c-6.6,-16.5 -11.916,-32.816 -15.949,-48.949c-4.034,-16.133 -7.059,-31.258 -9.075,-45.375c-2.017,-14.116 -3.575,-26.491 -4.675,-37.124c-1.1,-10.633 -2.567,-18.883 -4.4,-24.75c-1.833,-5.866 -6.967,-8.983 -15.4,-9.35l0,-7.15l101.199,0l-0,8.25c-9.534,-0.366 -15.95,2.017 -19.25,7.15c-3.3,5.133 -5.317,11.55 -6.05,19.25c-0.733,7.7 -0.733,16.133 0,25.3c0.733,9.166 1.65,18.149 2.75,26.949c1.467,9.167 3.3,18.15 5.5,26.95c2.2,8.8 5.866,18.149 11,28.049c5.133,9.534 11.733,19.433 19.799,29.7c8.067,10.266 15.4,19.066 22,26.4c6.233,7.333 11.55,13.199 15.95,17.599l11,11c2.933,2.933 5.683,5.5 8.25,7.7c2.566,2.2 5.133,4.767 7.7,7.7c2.933,2.933 6.141,6.6 9.624,11c3.484,4.4 8.892,11.366 16.225,20.899l0.55,0c0.939,-5.321 1.905,-10.546 2.897,-15.674c4.821,-24.911 10.272,-47.552 16.353,-67.924c7.333,-24.567 13.566,-46.016 18.7,-64.349c6.233,-19.8 10.816,-35.842 13.749,-48.125c2.934,-12.283 4.767,-22.274 5.5,-29.974c1.1,-7.7 1.375,-13.567 0.825,-17.6c-0.55,-4.033 -2.108,-7.333 -4.675,-9.9c-5.866,-5.133 -15.216,-7.7 -28.049,-7.7l-0,-12.65l107.798,0Z" style="fill:#722e00;fill-rule:nonzero;"/><g><path d="M430.721,251.021c-0.002,0.113 0.02,0.12 0.08,-0.061l-0.08,0.061Z" style="fill:#b100cb;"/><path d="M322.621,468.637c5.878,-10.434 25.587,-39.35 43.073,-76.05c4.165,-8.739 5.243,-10.899 5.948,-14.971c1.675,-9.669 -1.894,-18.157 -5.046,-27.515c-4.738,-14.071 -14.035,-24.874 -11.318,-39.76c3.923,-20.422 14.115,-30.903 15.137,-31.953c8.223,-8.457 8.311,-8.984 16.469,-17.153c2.353,-2.356 5.703,-6.567 6.8,-7.927l-0.351,1.85c-0.096,0.572 -3.175,17.83 -3.804,29.974c-0.715,13.836 7.895,32.96 10.952,50.353c2.482,13.046 8.985,44.761 1.072,64.814c-10.985,27.831 -48.981,64.397 -68.705,95.812c-0.701,0.253 -8.799,-4.767 -12.578,-12.18c-0.287,-0.564 -4.657,-2.858 2.351,-15.294Z" style="fill:#b100cb;"/><path d="M432.505,236.741c2.547,-1.215 4.331,-1.853 4.698,-1.985c-3.867,1.398 -8.403,20.295 -8.624,25.041c-18.168,11.795 -27.948,19.875 -29.982,38.831c0.014,-1.257 0.054,-8.653 1.674,-16.524c2.25,-11.196 9.768,-21.419 12.212,-25.315c4.009,-6.39 7.016,-10.144 12.237,-14.269c1.736,-1.538 4.554,-3.801 7.785,-5.779Z" style="fill:#b100cb;"/><path d="M411.909,368.091c4.646,22.065 2.505,29.86 1.744,32.925c-2.652,10.683 -9.307,20.564 -11.584,23.87c-6.498,9.435 -14.434,19.845 -32.193,41.649c-11.243,13.803 -18.104,21.944 -23.829,25.284l-0.285,0.165c0.529,-0.83 2.887,-4.528 6.511,-9.627c17.152,-24.128 43.847,-53.027 54.363,-74.717c4.259,-8.787 5.196,-15.256 5.515,-18.806c0.844,-9.758 -0.068,-18.928 -0.242,-20.743Z" style="fill:#b100cb;"/></g><path d="M430.024,265.768c-4.109,7.461 -10.935,13.855 -15.887,23.091c-6.131,11.434 -5.541,10.716 -13.223,25.574c0.766,-8.783 2.59,-13.677 5.506,-19.897c2.935,-6.261 8.501,-12.444 12.104,-17.669c3.99,-5.786 7.342,-5.813 11.5,-11.099Z" style="fill:#b100cb;"/></g><g><g><g><path d="M182.111,15.51c4.716,-4.647 30.254,28.101 28.229,70.115c-4.271,88.605 13.374,119.265 25.296,113.644c38.317,-18.063 88.145,6.199 96.145,9c8.555,2.995 -62.329,55.678 -149.67,78.713c-87.341,23.035 -164.52,13.523 -166.832,4.759c-1.92,-7.28 3.015,-10.627 59.56,-50.064c12.224,-8.526 -3.533,-61.884 44.444,-138.052c10.413,-16.532 38.445,-64.088 62.828,-88.115Z" style="fill:#090085;"/></g><g><path d="M114.187,212.195l2.134,7.432l7.727,0.267l-6.408,4.326l2.133,7.431l-6.094,-4.758l-6.409,4.326l2.642,-7.266l-6.094,-4.759l7.727,0.268l2.642,-7.267Z" style="fill:#fff;"/><path d="M158.155,168.251l-1.324,7.618l6.836,3.613l-7.654,1.095l-1.324,7.617l-3.407,-6.941l-7.654,1.095l5.549,-5.385l-3.406,-6.941l6.836,3.614l5.548,-5.385Z" style="fill:#fff;"/><path d="M150.552,263.296l-3.77,6.75l5.255,5.672l-7.585,-1.5l-3.77,6.751l-0.918,-7.678l-7.585,-1.499l7.018,-3.245l-0.917,-7.678l5.255,5.672l7.017,-3.245Z" style="fill:#fff;"/><path d="M74.043,270.984l1.268,7.628l7.646,1.151l-6.862,3.562l1.268,7.628l-5.509,-5.426l-6.862,3.563l3.457,-6.916l-5.509,-5.425l7.646,1.151l3.457,-6.916Z" style="fill:#fff;"/><path d="M195.149,180.494l6.995,3.294l5.294,-5.635l-0.971,7.671l6.995,3.294l-7.595,1.447l-0.972,7.67l-3.722,-6.776l-7.596,1.446l5.295,-5.634l-3.723,-6.777Z" style="fill:#fff;"/><path d="M163.667,68.68l7.712,-0.55l1.859,-7.505l2.907,7.164l7.712,-0.55l-5.915,4.978l2.907,7.165l-6.563,-4.088l-5.916,4.979l1.86,-7.505l-6.563,-4.088Z" style="fill:#fff;"/><path d="M188.703,247.46l7.131,2.988l5.046,-5.858l-0.639,7.705l7.131,2.989l-7.526,1.773l-0.638,7.706l-4.013,-6.609l-7.525,1.773l5.046,-5.858l-4.013,-6.609Z" style="fill:#fff;"/><path d="M279.749,209.57l1.268,7.627l7.646,1.151l-6.862,3.563l1.268,7.627l-5.509,-5.425l-6.862,3.563l3.457,-6.916l-5.509,-5.425l7.646,1.151l3.457,-6.916Z" style="fill:#fff;"/><path d="M119.472,126.211l4.854,6.018l7.223,-2.757l-4.223,6.477l4.853,6.018l-7.464,-2.016l-4.224,6.476l-0.389,-7.722l-7.465,-2.016l7.224,-2.756l-0.389,-7.722Z" style="fill:#fff;"/><path d="M196.224,108.643l-3.841,6.71l5.194,5.727l-7.568,-1.58l-3.842,6.711l-0.836,-7.687l-7.569,-1.579l7.052,-3.171l-0.837,-7.687l5.195,5.727l7.052,-3.171Z" style="fill:#fff;"/></g></g><path d="M77.637,241.801c-1.26,-1.168 -4.848,3.263 34.387,3.998c7.756,0.145 82.271,-15.874 94.566,-23.625c20.478,-12.909 26.137,-18.997 26.137,-18.997c-6.866,29.053 -142.465,50.327 -155.09,38.624Z" style="fill:#fff;stroke:#fff;stroke-width:9.05px;"/></g></svg>